<svg height="548" viewBox="0 0 1278 548" width="1278" xmlns="http://www.w3.org/2000/svg"><g fill="#fffffe" fill-rule="evenodd" opacity=".352888"><g transform="translate(1078 29)"><path d="m35.405 64.496c0 .994-.81 1.799-1.8 1.799-1 0-1.8-.805-1.8-1.799 0-.993.8-1.798 1.8-1.798.99 0 1.8.805 1.8 1.798"/><path d="m120.285 21.446c0 .993-.8 1.798-1.8 1.798-.99 0-1.8-.805-1.8-1.798 0-.994.81-1.799 1.8-1.799 1 0 1.8.805 1.8 1.799"/><path d="m17.305 59.374c0 .993-.81 1.799-1.8 1.799s-1.8-.806-1.8-1.799.81-1.798 1.8-1.798 1.8.805 1.8 1.798"/><path d="m67.635 22.786 1.69.374c.73.162.73 1.205 0 1.367l-1.69.375c-1.18.26-2.08 1.207-2.27 2.393l-.48 2.878c-.12.782-1.25.782-1.38 0l-.47-2.864c-.19-1.193-1.1-2.144-2.28-2.398l-1.79-.383c-.73-.158-.73-1.21 0-1.369l1.79-.383c1.18-.253 2.09-1.205 2.28-2.397l.47-2.865c.13-.781 1.26-.781 1.38 0l.48 2.878c.19 1.186 1.09 2.134 2.27 2.394"/><path d="m199.685 15.469c0 2.066-1.67 3.741-3.74 3.741s-3.74-1.675-3.74-3.741c0-2.065 1.67-3.739 3.74-3.739s3.74 1.674 3.74 3.739"/><path d="m39.235 40.726c0 1.032-.84 1.87-1.87 1.87s-1.87-.838-1.87-1.87c0-1.033.84-1.87 1.87-1.87s1.87.837 1.87 1.87"/><path d="m44.505 5.132c0 1.033-.84 1.871-1.87 1.871-1.04 0-1.87-.838-1.87-1.871 0-1.032.83-1.87 1.87-1.87 1.03 0 1.87.838 1.87 1.87"/><path d="m4.175 86.774c0 1.033-.84 1.87-1.87 1.87s-1.87-.837-1.87-1.87.84-1.87 1.87-1.87 1.87.837 1.87 1.87"/><path d="m52.985 54.097c0 1.033-.83 1.87-1.87 1.87-1.03 0-1.87-.837-1.87-1.87s.84-1.87 1.87-1.87c1.04 0 1.87.837 1.87 1.87"/><path d="m79.335 1.87c0 1.032-.84 1.87-1.87 1.87s-1.87-.838-1.87-1.87c0-1.033.84-1.87 1.87-1.87s1.87.837 1.87 1.87"/><path d="m92.625 26.917c0 1.032-.84 1.87-1.87 1.87s-1.87-.838-1.87-1.87c0-1.033.84-1.87 1.87-1.87s1.87.837 1.87 1.87"/><path d="m42.495 87.704c0 1.033-.83 1.87-1.87 1.87-1.03 0-1.87-.837-1.87-1.87 0-1.032.84-1.87 1.87-1.87 1.04 0 1.87.838 1.87 1.87"/></g><g transform="matrix(-1 0 0 1 1234 455)"><path d="m35.405 64.496c0 .994-.81 1.799-1.8 1.799-1 0-1.8-.805-1.8-1.799 0-.993.8-1.798 1.8-1.798.99 0 1.8.805 1.8 1.798"/><path d="m120.285 21.446c0 .993-.8 1.798-1.8 1.798-.99 0-1.8-.805-1.8-1.798 0-.994.81-1.799 1.8-1.799 1 0 1.8.805 1.8 1.799"/><path d="m17.305 59.374c0 .993-.81 1.799-1.8 1.799s-1.8-.806-1.8-1.799.81-1.798 1.8-1.798 1.8.805 1.8 1.798"/><path d="m67.635 22.786 1.69.374c.73.162.73 1.205 0 1.367l-1.69.375c-1.18.26-2.08 1.207-2.27 2.393l-.48 2.878c-.12.782-1.25.782-1.38 0l-.47-2.864c-.19-1.193-1.1-2.144-2.28-2.398l-1.79-.383c-.73-.158-.73-1.21 0-1.369l1.79-.383c1.18-.253 2.09-1.205 2.28-2.397l.47-2.865c.13-.781 1.26-.781 1.38 0l.48 2.878c.19 1.186 1.09 2.134 2.27 2.394"/><path d="m39.235 40.726c0 1.032-.84 1.87-1.87 1.87s-1.87-.838-1.87-1.87c0-1.033.84-1.87 1.87-1.87s1.87.837 1.87 1.87"/><path d="m44.505 5.132c0 1.033-.84 1.871-1.87 1.871-1.04 0-1.87-.838-1.87-1.871 0-1.032.83-1.87 1.87-1.87 1.03 0 1.87.838 1.87 1.87"/><path d="m4.175 86.774c0 1.033-.84 1.87-1.87 1.87s-1.87-.837-1.87-1.87.84-1.87 1.87-1.87 1.87.837 1.87 1.87"/><path d="m109.74 57.87c0 1.033-.83 1.87-1.87 1.87-1.03 0-1.87-.837-1.87-1.87s.84-1.87 1.87-1.87c1.04 0 1.87.837 1.87 1.87"/><path d="m79.335 1.87c0 1.032-.84 1.87-1.87 1.87s-1.87-.838-1.87-1.87c0-1.033.84-1.87 1.87-1.87s1.87.837 1.87 1.87"/><path d="m155.74 90.87c0 1.032-.84 1.87-1.87 1.87s-1.87-.838-1.87-1.87c0-1.033.84-1.87 1.87-1.87s1.87.837 1.87 1.87"/><path d="m42.495 87.704c0 1.033-.83 1.87-1.87 1.87-1.03 0-1.87-.837-1.87-1.87 0-1.032.84-1.87 1.87-1.87 1.04 0 1.87.838 1.87 1.87"/></g><g transform="translate(0 402)"><path d="m41.357 52.99c0 .994-.806 1.799-1.799 1.799s-1.799-.805-1.799-1.799c0-.993.806-1.798 1.799-1.798s1.799.805 1.799 1.798"/><path d="m22.596 83.986c0 .993-.805 1.798-1.799 1.798-.993 0-1.798-.805-1.798-1.798 0-.994.805-1.799 1.798-1.799.994 0 1.799.805 1.799 1.799"/><path d="m99.101 35.695c0 .993-.805 1.798-1.799 1.798-.993 0-1.798-.805-1.798-1.798 0-.994.805-1.799 1.798-1.799.994 0 1.799.805 1.799 1.799"/><path d="m38.814 102.169c0 1.032-.838 1.87-1.87 1.87-1.034 0-1.871-.838-1.871-1.87 0-1.033.837-1.87 1.871-1.87 1.032 0 1.87.837 1.87 1.87"/><path d="m98.934 2.42c0 1.032-.838 1.869-1.87 1.869-1.033 0-1.87-.837-1.87-1.869 0-1.033.837-1.87 1.87-1.87 1.032 0 1.87.837 1.87 1.87"/><path d="m3.74 74.437c0 1.032-.837 1.87-1.87 1.87s-1.87-.838-1.87-1.87c0-1.033.837-1.87 1.87-1.87s1.87.837 1.87 1.87"/><path d="m54.55 79.907c0 1.034-.838 1.871-1.87 1.871-1.033 0-1.87-.837-1.87-1.871 0-1.033.837-1.87 1.87-1.87 1.032 0 1.87.837 1.87 1.87"/><path d="m71.647 50.274 1.758.388c.76.169.76 1.253 0 1.422l-1.758.389c-1.221.27-2.154 1.256-2.357 2.488l-.493 2.993c-.134.813-1.302.813-1.435 0l-.492-2.978c-.204-1.24-1.145-2.229-2.375-2.492l-1.854-.399c-.767-.165-.767-1.259 0-1.424l1.854-.398c1.23-.264 2.171-1.252 2.375-2.492l.492-2.979c.133-.812 1.301-.812 1.435 0l.493 2.993c.203 1.233 1.136 2.218 2.357 2.489"/></g><g transform="translate(558)"><path d="m192.009 154.549h-1c-.003 1.578-1.28 2.855-2.858 2.858-1.58-.003-2.857-1.28-2.86-2.858.003-1.579 1.28-2.856 2.86-2.859 1.578.003 2.855 1.28 2.858 2.859h2c-.001-2.684-2.175-4.859-4.858-4.859-2.685 0-4.859 2.175-4.86 4.859.001 2.683 2.175 4.857 4.86 4.858 2.683-.001 4.857-2.175 4.858-4.858z"/><path d="m7.862 3.944c0 2.066-1.675 3.741-3.741 3.741-2.065 0-3.74-1.675-3.74-3.741 0-2.065 1.675-3.739 3.74-3.739 2.066 0 3.741 1.674 3.741 3.739"/><path d="m17.493 121.128 1.387.307c.6.133.6.988 0 1.12l-1.387.308c-.961.212-1.696.989-1.856 1.961l-.389 2.359c-.105.641-1.027.641-1.133 0l-.386-2.348c-.16-.977-.904-1.757-1.872-1.965l-1.462-.314c-.605-.13-.605-.992 0-1.122l1.462-.314c.968-.208 1.712-.987 1.872-1.965l.386-2.347c.106-.641 1.028-.641 1.133 0l.389 2.359c.16.971.895 1.748 1.856 1.961"/></g><g transform="translate(0 148)"><path d="m93.009 84.549h-1c-.003 1.578-1.28 2.855-2.858 2.858-1.58-.003-2.857-1.28-2.86-2.858.003-1.579 1.28-2.856 2.86-2.859 1.578.003 2.855 1.28 2.858 2.859h2c-.001-2.684-2.175-4.859-4.858-4.859-2.685 0-4.859 2.175-4.86 4.859.001 2.683 2.175 4.857 4.86 4.858 2.683-.001 4.857-2.175 4.858-4.858z"/><path d="m120.481 3.739c0 2.066-1.675 3.741-3.741 3.741-2.065 0-3.74-1.675-3.74-3.741 0-2.065 1.675-3.739 3.74-3.739 2.066 0 3.741 1.674 3.741 3.739"/><path d="m8.493 51.128 1.387.307c.6.133.6.988 0 1.12l-1.387.308c-.961.212-1.696.989-1.856 1.961l-.389 2.359c-.105.641-1.027.641-1.133 0l-.386-2.348c-.16-.977-.904-1.757-1.872-1.965l-1.462-.314c-.605-.13-.605-.992 0-1.122l1.462-.314c.968-.208 1.712-.987 1.872-1.965l.386-2.347c.106-.641 1.028-.641 1.133 0l.389 2.359c.16.971.895 1.748 1.856 1.961"/></g></g></svg>